HIERARCHY
ROOT Root
{
  OFFSET 0.0 0.0 0.0
  CHANNELS 6 Xposition Yposition Zposition Zrotation Yrotation Xrotation
  JOINT Hips
  {
    OFFSET 0.0 100.0 0.0
    CHANNELS 6 Xposition Yposition Zposition Zrotation Yrotation Xrotation
    JOINT Spine1
    {
      OFFSET 5.003913 -0.037094 -0.013727
      CHANNELS 3 Zrotation Yrotation Xrotation
      JOINT Spine2
      {
        OFFSET 7.125363 -1e-06 0.0
        CHANNELS 3 Zrotation Yrotation Xrotation
        JOINT Chest
        {
          OFFSET 7.594027 1e-06 0.0
          CHANNELS 3 Zrotation Yrotation Xrotation
          JOINT Neck1
          {
            OFFSET 26.313086 -0.460272 -0.181672
            CHANNELS 3 Zrotation Yrotation Xrotation
            JOINT Neck2
            {
              OFFSET 8.045911 0.0 0.0
              CHANNELS 3 Zrotation Yrotation Xrotation
              JOINT Head
              {
                OFFSET 6.432774 0.0 0.0
                CHANNELS 3 Zrotation Yrotation Xrotation
                JOINT HeadEnd
                {
                  OFFSET 16.169773 0.06451 0.00362
                  CHANNELS 3 Zrotation Yrotation Xrotation
                }
                JOINT Jaw
                {
                  OFFSET 0.108741 3.12938 0.002639
                  CHANNELS 3 Zrotation Yrotation Xrotation
                }
                JOINT LeftEye
                {
                  OFFSET 4.45173 8.166359 3.206392
                  CHANNELS 3 Zrotation Yrotation Xrotation
                }
                JOINT RightEye
                {
                  OFFSET 4.436895 8.135758 -3.222429
                  CHANNELS 3 Zrotation Yrotation Xrotation
                }
              }
            }
          }
          JOINT LeftShoulder
          {
            OFFSET 23.218927 5.195579 1.621656
            CHANNELS 3 Zrotation Yrotation Xrotation
            JOINT LeftArm
            {
              OFFSET 15.902118 2e-06 -2e-06
              CHANNELS 3 Zrotation Yrotation Xrotation
              JOINT LeftForeArm
              {
                OFFSET 28.739307 0.0 -1e-06
                CHANNELS 3 Zrotation Yrotation Xrotation
                JOINT LeftHand
                {
                  OFFSET 27.093981 -4e-06 0.0
                  CHANNELS 3 Zrotation Yrotation Xrotation
                  JOINT LeftHandThumb1
                  {
                    OFFSET 2.276781 3.380274 0.83384
                    CHANNELS 3 Zrotation Yrotation Xrotation
                    JOINT LeftHandThumb2
                    {
                      OFFSET 4.705309 -1e-06 -1e-06
                      CHANNELS 3 Zrotation Yrotation Xrotation
                      JOINT LeftHandThumb3
                      {
                        OFFSET 2.798515 0.0 3e-06
                        CHANNELS 3 Zrotation Yrotation Xrotation
                        JOINT LeftHandThumbEnd
                        {
                          OFFSET 3.180793 4e-06 -4e-06
                          CHANNELS 3 Zrotation Yrotation Xrotation
                        }
                      }
                    }
                  }
                  JOINT LeftHandIndex1
                  {
                    OFFSET 3.247786 2.352677 0.137192
                    CHANNELS 3 Zrotation Yrotation Xrotation
                    JOINT LeftHandIndex2
                    {
                      OFFSET 6.367095 1e-06 0.0
                      CHANNELS 3 Zrotation Yrotation Xrotation
                      JOINT LeftHandIndex3
                      {
                        OFFSET 3.662364 0.0 0.0
                        CHANNELS 3 Zrotation Yrotation Xrotation
                        JOINT LeftHandIndex4
                        {
                          OFFSET 2.329242 4e-06 -4e-06
                          CHANNELS 3 Zrotation Yrotation Xrotation
                          JOINT LeftHandIndexEnd
                          {
                            OFFSET 2.767823 1e-06 0.0
                            CHANNELS 3 Zrotation Yrotation Xrotation
                          }
                        }
                      }
                    }
                  }
                  JOINT LeftHandMiddle1
                  {
                    OFFSET 3.163612 0.945023 -0.406112
                    CHANNELS 3 Zrotation Yrotation Xrotation
                    JOINT LeftHandMiddle2
                    {
                      OFFSET 6.276789 3e-06 0.0
                      CHANNELS 3 Zrotation Yrotation Xrotation
                      JOINT LeftHandMiddle3
                      {
                        OFFSET 4.35652 -1e-06 4e-06
                        CHANNELS 3 Zrotation Yrotation Xrotation
                        JOINT LeftHandMiddle4
                        {
                          OFFSET 2.996877 0.0 8e-06
                          CHANNELS 3 Zrotation Yrotation Xrotation
                          JOINT LeftHandMiddleEnd
                          {
                            OFFSET 2.323256 3e-06 -4e-06
                            CHANNELS 3 Zrotation Yrotation Xrotation
                          }
                        }
                      }
                    }
                  }
                  JOINT LeftHandRing1
                  {
                    OFFSET 2.882606 -0.309162 0.107445
                    CHANNELS 3 Zrotation Yrotation Xrotation
                    JOINT LeftHandRing2
                    {
                      OFFSET 6.033198 0.0 4e-06
                      CHANNELS 3 Zrotation Yrotation Xrotation
                      JOINT LeftHandRing3
                      {
                        OFFSET 4.350578 3e-06 0.0
                        CHANNELS 3 Zrotation Yrotation Xrotation
                        JOINT LeftHandRing4
                        {
                          OFFSET 2.651321 2e-06 -7e-06
                          CHANNELS 3 Zrotation Yrotation Xrotation
                          JOINT LeftHandRingEnd
                          {
                            OFFSET 1.937663 1e-06 -4e-06
                            CHANNELS 3 Zrotation Yrotation Xrotation
                          }
                        }
                      }
                    }
                  }
                  JOINT LeftHandPinky1
                  {
                    OFFSET 2.865315 -1.525436 0.575687
                    CHANNELS 3 Zrotation Yrotation Xrotation
                    JOINT LeftHandPinky2
                    {
                      OFFSET 5.54936 1e-06 -8e-06
                      CHANNELS 3 Zrotation Yrotation Xrotation
                      JOINT LeftHandPinky3
                      {
                        OFFSET 3.070974 0.0 -4e-06
                        CHANNELS 3 Zrotation Yrotation Xrotation
                        JOINT LeftHandPinky4
                        {
                          OFFSET 1.549672 1e-06 0.0
                          CHANNELS 3 Zrotation Yrotation Xrotation
                          JOINT LeftHandPinkyEnd
                          {
                            OFFSET 1.952123 0.0 0.0
                            CHANNELS 3 Zrotation Yrotation Xrotation
                          }
                        }
                      }
                    }
                  }
                }
              }
            }
          }
          JOINT RightShoulder
          {
            OFFSET 23.161716 5.296122 -1.380114
            CHANNELS 3 Zrotation Yrotation Xrotation
            JOINT RightArm
            {
              OFFSET -16.027195 -2e-06 1.1e-05
              CHANNELS 3 Zrotation Yrotation Xrotation
              JOINT RightForeArm
              {
                OFFSET -28.736639 4e-06 2e-06
                CHANNELS 3 Zrotation Yrotation Xrotation
                JOINT RightHand
                {
                  OFFSET -27.133619 6e-06 0.0
                  CHANNELS 3 Zrotation Yrotation Xrotation
                  JOINT RightHandThumb1
                  {
                    OFFSET -2.274328 -3.351035 -0.83067
                    CHANNELS 3 Zrotation Yrotation Xrotation
                    JOINT RightHandThumb2
                    {
                      OFFSET -4.703594 -3e-06 2e-06
                      CHANNELS 3 Zrotation Yrotation Xrotation
                      JOINT RightHandThumb3
                      {
                        OFFSET -2.794935 -4e-06 -3e-06
                        CHANNELS 3 Zrotation Yrotation Xrotation
                        JOINT RightHandThumbEnd
                        {
                          OFFSET -3.183852 4e-06 1e-06
                          CHANNELS 3 Zrotation Yrotation Xrotation
                        }
                      }
                    }
                  }
                  JOINT RightHandIndex1
                  {
                    OFFSET -3.253496 -2.33755 -0.127667
                    CHANNELS 3 Zrotation Yrotation Xrotation
                    JOINT RightHandIndex2
                    {
                      OFFSET -6.344434 0.0 0.0
                      CHANNELS 3 Zrotation Yrotation Xrotation
                      JOINT RightHandIndex3
                      {
                        OFFSET -3.654871 0.0 -8e-06
                        CHANNELS 3 Zrotation Yrotation Xrotation
                        JOINT RightHandIndex4
                        {
                          OFFSET -2.327586 -1e-06 0.0
                          CHANNELS 3 Zrotation Yrotation Xrotation
                          JOINT RightHandIndexEnd
                          {
                            OFFSET -2.770001 3e-06 8e-06
                            CHANNELS 3 Zrotation Yrotation Xrotation
                          }
                        }
                      }
                    }
                  }
                  JOINT RightHandMiddle1
                  {
                    OFFSET -3.168223 -0.944764 0.411762
                    CHANNELS 3 Zrotation Yrotation Xrotation
                    JOINT RightHandMiddle2
                    {
                      OFFSET -6.266691 -1e-06 -4e-06
                      CHANNELS 3 Zrotation Yrotation Xrotation
                      JOINT RightHandMiddle3
                      {
                        OFFSET -4.348901 0.0 0.0
                        CHANNELS 3 Zrotation Yrotation Xrotation
                        JOINT RightHandMiddle4
                        {
                          OFFSET -3.00024 2e-06 -4e-06
                          CHANNELS 3 Zrotation Yrotation Xrotation
                          JOINT RightHandMiddleEnd
                          {
                            OFFSET -2.321477 -4e-06 -4e-06
                            CHANNELS 3 Zrotation Yrotation Xrotation
                          }
                        }
                      }
                    }
                  }
                  JOINT RightHandRing1
                  {
                    OFFSET -2.885654 0.293261 -0.119232
                    CHANNELS 3 Zrotation Yrotation Xrotation
                    JOINT RightHandRing2
                    {
                      OFFSET -6.032835 -1e-06 -4e-06
                      CHANNELS 3 Zrotation Yrotation Xrotation
                      JOINT RightHandRing3
                      {
                        OFFSET -4.33881 0.0 -4e-06
                        CHANNELS 3 Zrotation Yrotation Xrotation
                        JOINT RightHandRing4
                        {
                          OFFSET -2.654903 -4e-06 -4e-06
                          CHANNELS 3 Zrotation Yrotation Xrotation
                          JOINT RightHandRingEnd
                          {
                            OFFSET -1.935122 0.0 4e-06
                            CHANNELS 3 Zrotation Yrotation Xrotation
                          }
                        }
                      }
                    }
                  }
                  JOINT RightHandPinky1
                  {
                    OFFSET -2.866241 1.503904 -0.60527
                    CHANNELS 3 Zrotation Yrotation Xrotation
                    JOINT RightHandPinky2
                    {
                      OFFSET -5.553177 -2e-06 0.0
                      CHANNELS 3 Zrotation Yrotation Xrotation
                      JOINT RightHandPinky3
                      {
                        OFFSET -3.062664 -1e-06 -4e-06
                        CHANNELS 3 Zrotation Yrotation Xrotation
                        JOINT RightHandPinky4
                        {
                          OFFSET -1.546529 2e-06 4e-06
                          CHANNELS 3 Zrotation Yrotation Xrotation
                          JOINT RightHandPinkyEnd
                          {
                            OFFSET -1.952341 0.0 -4e-06
                            CHANNELS 3 Zrotation Yrotation Xrotation
                          }
                        }
                      }
                    }
                  }
                }
              }
            }
          }
        }
      }
    }
    JOINT LeftLeg
    {
      OFFSET -8.443107 2.567604 10.043214
      CHANNELS 3 Zrotation Yrotation Xrotation
      JOINT LeftShin
      {
        OFFSET 43.229198 1e-06 -1e-06
        CHANNELS 3 Zrotation Yrotation Xrotation
        JOINT LeftFoot
        {
          OFFSET 42.298611 1e-06 1e-06
          CHANNELS 3 Zrotation Yrotation Xrotation
          JOINT LeftToeBase
          {
            OFFSET 14.165858 1e-06 0.0
            CHANNELS 3 Zrotation Yrotation Xrotation
            JOINT LeftToeEnd
            {
              OFFSET 6.7141 -0.234461 0.0
              CHANNELS 3 Zrotation Yrotation Xrotation
            }
          }
        }
      }
    }
    JOINT RightLeg
    {
      OFFSET -8.303923 2.592729 -10.047278
      CHANNELS 3 Zrotation Yrotation Xrotation
      JOINT RightShin
      {
        OFFSET -43.369682 0.0 1e-06
        CHANNELS 3 Zrotation Yrotation Xrotation
        JOINT RightFoot
        {
          OFFSET -42.260784 4e-06 2e-06
          CHANNELS 3 Zrotation Yrotation Xrotation
          JOINT RightToeBase
          {
            OFFSET -14.222245 -2e-06 -1e-06
            CHANNELS 3 Zrotation Yrotation Xrotation
            JOINT RightToeEnd
            {
              OFFSET -6.660062 0.232574 -2e-06
              CHANNELS 3 Zrotation Yrotation Xrotation
            }
          }
        }
      }
    }
  }
}
MOTION
Frames: 4
Frame Time: 0.03333333333333333
0.0 0.0 0.0 0.0 -0.0 0.0 -0.319096 99.879303 -0.984725 90.538155 2.34206 91.864487 -1.302847 -0.131301 0.247942 -11.159651 -0.415634 0.736017 19.17527 -1.191855 -1.648567 14.909552 1.049107 2.248885 -2.584721 -0.733527 -1.27282 -37.97237 -0.904718 -3.327641 7e-06 0.0 0.0 0.051964 0.002732 -0.026254 0.147552 -0.082251 -0.043003 0.194313 0.077935 -0.011624 -116.554596 -78.483887 125.389778 54.009514 -39.303375 -66.547821 52.59985 0.607351 -0.349756 0.346386 3.13755 -71.834717 17.636633 -26.322735 52.411205 -19.466665 -14.395602 29.410395 -0.0 -8.774824 -4e-06 16.716618 -17.727106 5.841702 -0.609777 -1.795653 -3.889328 -4.807091 -11.046813 -2.93785 6e-06 -20.976019 -3e-06 -5.019971 -25.03356 -4.031881 6e-06 2e-06 -1e-06 -10.634535 -5.68697 -3.565587 10.573276 -17.922953 -3.113902 3e-06 -13.821213 1e-06 -0.501777 -31.181511 -4.027019 -11.451093 -59.1991 7.310208 -13.982717 -7.150198 -2.875043 13.772731 -8.401494 -3.218241 0.347733 -34.211555 0.771654 -0.963028 -17.733372 2.621021 1e-06 -0.0 0.0 -17.346422 -20.095221 -4.201784 21.757566 -1.638376 3.866431 2e-06 -6.338825 1e-06 -1.697591 -22.591747 -6.194008 -1e-06 -5e-06 -2e-06 61.485447 -84.847633 129.502075 46.750393 -43.115803 -61.087067 66.520218 -2.170949 0.362072 -3.894179 18.086473 -54.201599 22.182108 -20.375891 49.933327 -16.701813 -16.743528 28.476536 -2e-06 -12.690601 -0.0 16.544983 -17.938986 2.892457 -0.10592 -1.513858 -4.275881 -5.03904 -5.612871 -2.953558 4e-06 -11.020527 -3e-06 -6.1113 -15.895332 -3.840472 0.0 -0.0 1e-06 -10.283371 -5.680289 -4.341839 11.028294 -11.302403 -2.372636 -1.384267 -14.23858 -6.32012 -0.625438 -26.924187 -3.827601 -5.242607 -50.668171 -2.505034 -13.708526 -7.36348 -3.72094 18.14115 -14.052739 -3.242675 7e-06 -18.787271 -3e-06 -0.429711 -8.456045 2.555502 2e-06 -2e-06 0.0 -15.923536 -20.094482 -5.473585 30.41921 -7.190823 1.735921 1e-06 -8.162925 -2e-06 -1.861905 -22.861467 -6.167942 1e-06 -4e-06 -1e-06 -179.618149 -2.747918 -9.83328 13.662022 -0.06822 0.030762 -80.485016 3.792676 -2.716716 -4.278531 1.467926 2.155501 -0.999999 -0.0 0.0 -0.263583 -4.659206 -4.527689 14.428042 -0.067594 0.178731 -80.422157 -1.560805 -4.321172 -4.637286 0.631574 1.662166 -1.000003 -0.0 -0.0 
0.0 0.0 0.0 0.0 -0.0 0.0 -0.307272 99.880219 -0.97987 90.554222 2.335186 91.916168 -1.311867 -0.137639 0.257522 -11.163541 -0.405209 0.753679 19.194153 -1.195904 -1.650923 14.897766 0.932964 2.250901 -2.574619 -0.737195 -1.260658 -37.856422 -0.907811 -3.320328 7e-06 -0.0 0.0 0.058464 0.007805 -0.01594 0.153417 -0.074547 -0.03106 0.202189 0.080138 -0.002452 -115.796883 -78.509354 124.538185 53.791203 -39.304054 -66.655106 52.595234 0.58361 -0.370172 0.409568 2.936502 -71.446251 17.636627 -26.322733 52.411201 -19.466667 -14.395602 29.410398 -1e-06 -8.774822 -2e-06 16.758148 -17.677757 5.81595 -0.609775 -1.795653 -3.889328 -4.80709 -11.046814 -2.937851 8e-06 -20.976021 -3e-06 -5.019969 -25.033564 -4.031885 6e-06 2e-06 0.0 -10.634537 -5.686972 -3.565588 10.573278 -17.922956 -3.113903 3e-06 -13.821213 -0.0 -0.501774 -31.181511 -4.027017 -11.498631 -59.277504 7.321502 -13.982714 -7.150198 -2.875041 13.772733 -8.401495 -3.218243 0.347739 -34.211559 0.771651 -0.963027 -17.733376 2.621021 1e-06 2e-06 1e-06 -17.346422 -20.095222 -4.20178 21.757565 -1.638376 3.866426 2e-06 -6.338824 -0.0 -1.697588 -22.591745 -6.194006 -1e-06 -3e-06 -3e-06 63.662342 -84.933334 127.323906 46.448521 -43.075153 -61.117996 66.640289 -2.169451 0.298653 -4.032387 18.098862 -54.076927 22.182108 -20.375891 49.933304 -16.701813 -16.74353 28.47653 -2e-06 -12.690601 1e-06 16.519892 -17.890768 2.897695 -0.105919 -1.513857 -4.275881 -5.039039 -5.612871 -2.953556 4e-06 -11.020523 -3e-06 -6.111298 -15.89533 -3.840469 -0.0 -0.0 0.0 -10.283368 -5.680287 -4.341836 11.028292 -11.302402 -2.372633 -1.38427 -14.238579 -6.320118 -0.625439 -26.924183 -3.827599 -5.262874 -50.668247 -2.51035 -13.708523 -7.363476 -3.720936 18.141148 -14.052736 -3.242674 6e-06 -18.787266 -2e-06 -0.429712 -8.456041 2.555501 2e-06 -1e-06 -0.0 -15.923538 -20.094482 -5.473578 30.41921 -7.190821 1.73592 2e-06 -8.162925 -1e-06 -1.861902 -22.861465 -6.167942 -1e-06 -4e-06 -2e-06 -179.604355 -2.740494 -9.827063 13.633911 -0.064445 0.02322 -80.469254 3.84178 -2.684757 -4.298479 1.485507 2.156733 -1.000001 -0.0 -0.0 -0.246429 -4.682982 -4.526298 14.425111 -0.058238 0.181705 -80.435448 -1.590144 -4.316797 -4.658252 0.623124 1.659821 -1.000003 -0.0 -0.0 
0.0 0.0 0.0 0.0 -0.0 0.0 -0.296149 99.880127 -0.96633 90.567787 2.322784 91.965462 -1.3203 -0.137366 0.25482 -11.17509 -0.394263 0.767412 19.218445 -1.215376 -1.652902 14.859886 0.850261 2.218364 -2.564976 -0.75261 -1.175072 -37.727993 -0.945768 -3.281696 7e-06 -0.0 0.0 0.060807 0.015471 0.000551 0.162721 -0.065475 -0.012052 0.209592 0.086517 0.011832 -114.864922 -78.538155 123.541771 53.62833 -39.332829 -66.936455 52.499943 0.524786 -0.354016 0.459252 2.752024 -71.284775 17.636633 -26.322723 52.411182 -19.466665 -14.395598 29.410389 -1e-06 -8.774821 -4e-06 16.767691 -17.656805 5.80657 -0.609774 -1.795653 -3.889328 -4.807087 -11.04681 -2.937851 1e-05 -20.976019 -3e-06 -5.019968 -25.033558 -4.03188 6e-06 2e-06 1e-06 -10.63453 -5.686968 -3.565588 10.573272 -17.922951 -3.113902 4e-06 -13.821209 1e-06 -0.501773 -31.181505 -4.027017 -11.496562 -59.264698 7.323854 -13.982712 -7.150196 -2.875045 13.77273 -8.401495 -3.218243 0.347742 -34.211555 0.77165 -0.963028 -17.733372 2.621021 -1e-06 3e-06 3e-06 -17.346413 -20.095217 -4.201785 21.757557 -1.638377 3.866428 2e-06 -6.338824 -0.0 -1.697586 -22.591745 -6.194007 0.0 -2e-06 -5e-06 65.834549 -84.980736 125.16938 46.282101 -43.078232 -61.148808 66.68634 -2.143254 0.277609 -4.151443 18.159912 -53.851433 22.182112 -20.375889 49.933319 -16.701811 -16.743526 28.476528 -3e-06 -12.6906 -0.0 16.476805 -17.858578 2.908862 -0.10592 -1.513855 -4.275881 -5.039038 -5.612867 -2.953557 3e-06 -11.020523 -2e-06 -6.111296 -15.895329 -3.840471 -1e-06 0.0 0.0 -10.283368 -5.680287 -4.341837 11.028289 -11.302404 -2.372631 -1.384269 -14.238578 -6.320118 -0.625439 -26.924181 -3.827601 -5.251095 -50.659206 -2.53595 -13.708524 -7.363476 -3.720938 18.141146 -14.052736 -3.242674 7e-06 -18.787266 -2e-06 -0.429712 -8.456043 2.555503 2e-06 -2e-06 -1e-06 -15.923532 -20.094479 -5.473584 30.41921 -7.190824 1.735926 1e-06 -8.162925 0.0 -1.861905 -22.861467 -6.167941 1e-06 -5e-06 -1e-06 -179.59697 -2.739097 -9.822321 13.61782 -0.064768 0.013515 -80.463097 3.890958 -2.644913 -4.322371 1.492126 2.152287 -0.999997 -0.0 0.0 -0.235275 -4.699297 -4.549719 14.426982 -0.051415 0.181959 -80.456848 -1.608013 -4.296948 -4.685106 0.622126 1.657308 -1.000002 0.0 0.0 
0.0 0.0 0.0 0.0 -0.0 0.0 -0.287013 99.878433 -0.942876 90.585419 2.315303 91.991867 -1.322125 -0.138455 0.239544 -11.18697 -0.392265 0.761955 19.232185 -1.243612 -1.647745 14.826489 0.790395 2.183076 -2.564166 -0.766568 -1.062649 -37.603874 -0.978549 -3.191365 7e-06 -0.0 0.0 0.058972 0.019394 0.008457 0.165968 -0.060814 -0.002254 0.211089 0.089749 0.017737 -113.831245 -78.54068 122.484116 53.43457 -39.398655 -67.227417 52.40329 0.507664 -0.311284 0.575175 2.600932 -71.250984 17.636625 -26.322718 52.411182 -19.466663 -14.395597 29.410385 -0.0 -8.774822 -3e-06 16.740873 -17.663834 5.800523 -0.609779 -1.795655 -3.889328 -4.80709 -11.046812 -2.93785 6e-06 -20.976017 -3e-06 -5.019968 -25.03356 -4.031881 6e-06 2e-06 -3e-06 -10.634534 -5.68697 -3.565586 10.573274 -17.922949 -3.113903 4e-06 -13.821209 -3e-06 -0.501774 -31.181505 -4.027016 -11.450311 -59.207272 7.293377 -13.982714 -7.150199 -2.875042 13.772727 -8.401493 -3.218243 0.347738 -34.211552 0.771647 -0.963027 -17.73337 2.621021 2e-06 -1e-06 0.0 -17.34642 -20.095219 -4.201779 21.757557 -1.638375 3.866426 2e-06 -6.338822 0.0 -1.697585 -22.591742 -6.194011 -1e-06 -3e-06 -3e-06 67.620789 -85.020233 123.416656 46.197166 -43.143196 -61.218979 66.742638 -2.120507 0.277807 -4.210879 18.225233 -53.510742 22.182112 -20.375887 49.933308 -16.701817 -16.74353 28.476526 -5e-06 -12.690601 -0.0 16.445147 -17.85203 2.917432 -0.105919 -1.513855 -4.275882 -5.039039 -5.612869 -2.953557 4e-06 -11.02052 -4e-06 -6.111294 -15.895326 -3.840469 -1e-06 -0.0 1e-06 -10.283369 -5.680284 -4.341839 11.028294 -11.302403 -2.372632 -1.384266 -14.238575 -6.32012 -0.625437 -26.924183 -3.827599 -5.209713 -50.597702 -2.566891 -13.708522 -7.363473 -3.720941 18.141148 -14.052739 -3.242675 9e-06 -18.787266 -2e-06 -0.42971 -8.456041 2.555503 2e-06 0.0 -1e-06 -15.923531 -20.094477 -5.473587 30.41921 -7.190826 1.735922 3e-06 -8.162921 0.0 -1.861899 -22.861465 -6.16794 -2e-06 -2e-06 -1e-06 -179.570435 -2.729083 -9.829647 13.591762 -0.066742 0.004745 -80.462563 3.923024 -2.631878 -4.336555 1.484456 2.146596 -0.999999 -0.0 -0.0 -0.228076 -4.712789 -4.567378 14.449224 -0.04981 0.179577 -80.492516 -1.636026 -4.26763 -4.692487 0.621532 1.654451 -1.000003 -0.0 0.0 
